<svg width="53" height="34" viewBox="0 0 53 34" fill="none" xmlns="http://www.w3.org/2000/svg">
<path fill-rule="evenodd" clip-rule="evenodd" d="M12.3944 33.5C14.8465 33.5 17.1323 32.552 19.0563 30.9163C20.9803 32.552 23.2662 33.5 25.7183 33.5C28.4739 33.5 31.0194 32.3029 33.0775 30.278C35.1355 32.3029 37.6811 33.5 40.4366 33.5C47.2818 33.5 52.831 26.1127 52.831 17C52.831 7.8873 47.2818 0.5 40.4366 0.5C37.6811 0.5 35.1355 1.6971 33.0775 3.72196C31.0194 1.6971 28.4739 0.5 25.7183 0.5C23.2662 0.5 20.9803 1.44799 19.0563 3.0837C17.1323 1.44799 14.8465 0.5 12.3944 0.5C5.54915 0.5 0 7.8873 0 17C0 26.1127 5.54915 33.5 12.3944 33.5Z" fill="url(#paint0_radial_5785_1716)"/>
<path fill-rule="evenodd" clip-rule="evenodd" d="M12.3944 33.5C14.8465 33.5 17.1323 32.552 19.0563 30.9163C20.9803 32.552 23.2662 33.5 25.7183 33.5C28.4739 33.5 31.0194 32.3029 33.0775 30.278C35.1355 32.3029 37.6811 33.5 40.4366 33.5C47.2818 33.5 52.831 26.1127 52.831 17C52.831 7.8873 47.2818 0.5 40.4366 0.5C37.6811 0.5 35.1355 1.6971 33.0775 3.72196C31.0194 1.6971 28.4739 0.5 25.7183 0.5C23.2662 0.5 20.9803 1.44799 19.0563 3.0837C17.1323 1.44799 14.8465 0.5 12.3944 0.5C5.54915 0.5 0 7.8873 0 17C0 26.1127 5.54915 33.5 12.3944 33.5Z" fill="url(#paint1_radial_5785_1716)"/>
<path d="M10.2364 17.612L10.0363 18.3557L10.7887 18.5571L10.6446 18.0071L10.2364 17.612ZM13.9906 18.0071L13.8465 18.5571L14.5989 18.3557L14.3988 17.612L13.9906 18.0071ZM10.6446 16.1479L10.2364 16.543L10.3885 17.0775L10.6446 16.1479Z" fill="white"/>
<path d="M10.3881 17.0775L10.236 17.612L10.6442 18.0071L10.3881 17.0775Z" fill="white"/>
<path d="M10.2359 16.5431L9.68359 17.0776L10.2359 17.6121L10.388 17.0776L10.2359 16.5431ZM11.3566 18.6966L11.7648 19.0917L12.3171 18.9445L11.3566 18.6966ZM12.8695 19.0917L13.6379 19.2853L13.846 18.5572L13.2777 18.6966L12.8695 19.0917Z" fill="white"/>
<path d="M13.2775 18.6965L13.8459 18.5571L13.99 18.0071L13.2775 18.6965ZM10.7881 18.5571L10.9962 19.2853L11.7647 19.0916L11.3564 18.6965L10.7881 18.5571ZM12.317 18.9444L12.8693 19.0916L13.2775 18.6965L12.317 18.9444Z" fill="white"/>
<path d="M11.7653 19.0916L12.3176 19.6261L12.8699 19.0916L12.3176 18.9444L11.7653 19.0916ZM10.7887 15.5979L10.0363 15.7993L10.2364 16.543L10.6446 16.1479L10.7887 15.5979ZM10.6446 18.0071L10.7887 18.5571L11.357 18.6965L10.6446 18.0071ZM14.2467 17.0775L14.3988 16.543L13.9906 16.1479L14.2467 17.0775Z" fill="white"/>
<path d="M11.3566 15.4586L10.7882 15.5981L10.6442 16.1481L11.3566 15.4586ZM13.9901 16.1481L13.846 15.5981L13.2777 15.4586L13.9901 16.1481ZM14.3984 17.6121L14.9507 17.0776L14.3984 16.5431L14.2463 17.0776L14.3984 17.6121Z" fill="white"/>
<path d="M13.9903 16.148L13.2779 15.4586L12.3173 15.2107L11.3568 15.4586L10.6443 16.148L10.3882 17.0776L10.6443 18.0072L11.3568 18.6966L12.3173 18.9445L13.2779 18.6966L13.9903 18.0072L14.2465 17.0776L13.9903 16.148Z" fill="white"/>
<path d="M13.99 18.0071L14.3982 17.612L14.2461 17.0775L13.99 18.0071ZM14.3982 16.543L14.5983 15.7993L13.8459 15.5979L13.99 16.1479L14.3982 16.543ZM13.8459 15.5979L13.6378 14.8698L12.8693 15.0634L13.2775 15.4585L13.8459 15.5979ZM11.7647 15.0634L10.9962 14.8698L10.7881 15.5979L11.3564 15.4585L11.7647 15.0634ZM12.317 15.2106L11.7647 15.0634L11.3564 15.4585L12.317 15.2106Z" fill="white"/>
<path d="M12.8698 15.0636L12.3175 14.5291L11.7651 15.0636L12.3175 15.2107L12.8698 15.0636Z" fill="white"/>
<path d="M13.2777 15.4585L12.8695 15.0635L12.3171 15.2107L13.2777 15.4585ZM11.7648 19.0917L10.9964 19.2853L11.3566 20.5712L12.3171 19.6262L11.7648 19.0917ZM11.3566 20.5712L12.3171 24.0494L13.2777 20.5712L12.3171 19.6262L11.3566 20.5712ZM10.7882 18.5571L10.0358 18.3557L9.68359 19.6262L10.9964 19.2853L10.7882 18.5571Z" fill="white"/>
<path d="M9.68373 19.6261L8.72317 23.1198L11.3567 20.5712L10.9965 19.2853L9.68373 19.6261ZM8.72317 18.0071L6.07361 20.5712L9.68373 19.6261L10.0359 18.3557L8.72317 18.0071Z" fill="white"/>
<path d="M10.236 17.612L9.68371 17.0775L8.72314 18.0071L10.0359 18.3557L10.236 17.612ZM10.236 16.543L10.0359 15.7993L8.72314 16.1479L9.68371 17.0775L10.236 16.543Z" fill="white"/>
<path d="M8.72316 16.1479L5.11304 17.0775L8.72316 18.0071L9.68372 17.0775L8.72316 16.1479ZM15.9274 18.0071L14.5986 18.3557L14.9508 19.6261L18.5609 20.5712L15.9274 18.0071Z" fill="white"/>
<path d="M13.8462 18.5571L13.638 19.2853L14.9508 19.6261L14.5986 18.3557L13.8462 18.5571ZM12.8696 19.0916L12.3173 19.6261L13.2778 20.5712L13.638 19.2853L12.8696 19.0916ZM14.3985 17.612L14.5986 18.3557L15.9274 18.0071L14.9508 17.0775L14.3985 17.612Z" fill="white"/>
<path d="M13.2778 20.5713L15.9274 23.1199L14.9508 19.6262L13.638 19.2854L13.2778 20.5713ZM13.8462 15.5981L14.5986 15.7995L14.9508 14.5291L13.638 14.8699L13.8462 15.5981Z" fill="white"/>
<path d="M15.9274 16.148L18.5609 13.5994L14.9508 14.5289L14.5986 15.7994L15.9274 16.148ZM14.9508 14.5289L15.9274 11.0353L13.2778 13.5994L13.638 14.8698L14.9508 14.5289ZM15.9274 18.0071L19.5215 17.0775L15.9274 16.148L14.9508 17.0775L15.9274 18.0071Z" fill="white"/>
<path d="M14.3985 16.543L14.9508 17.0775L15.9274 16.148L14.5986 15.7994L14.3985 16.543ZM11.3567 13.5994L8.72314 11.0353L9.68371 14.5289L10.9965 14.8698L11.3567 13.5994Z" fill="white"/>
<path d="M10.7882 15.5981L10.9964 14.8699L9.68359 14.5291L10.0358 15.7995L10.7882 15.5981Z" fill="white"/>
<path d="M9.68373 14.5289L6.07361 13.5994L8.72317 16.148L10.0359 15.7994L9.68373 14.5289ZM12.8696 15.0635L13.6381 14.8698L13.2778 13.5994L12.3173 14.5289L12.8696 15.0635Z" fill="white"/>
<path d="M13.2778 13.5994L12.3173 10.1057L11.3567 13.5994L12.3173 14.529L13.2778 13.5994Z" fill="white"/>
<path d="M11.7647 15.0635L12.317 14.5289L11.3564 13.5994L10.9962 14.8698L11.7647 15.0635Z" fill="white"/>
<path d="M12.317 21.0359C14.576 21.0359 16.4074 19.2637 16.4074 17.0775C16.4074 14.8913 14.576 13.119 12.317 13.119C10.0579 13.119 8.22656 14.8913 8.22656 17.0775C8.22656 19.2637 10.0579 21.0359 12.317 21.0359Z" fill="#FE00BA"/>
<path d="M12.3174 20.5712C14.3112 20.5712 15.9275 19.007 15.9275 17.0775C15.9275 15.148 14.3112 13.5839 12.3174 13.5839C10.3236 13.5839 8.70728 15.148 8.70728 17.0775C8.70728 19.007 10.3236 20.5712 12.3174 20.5712Z" fill="white"/>
<path d="M33.8618 17.0174C33.8618 19.1846 33.1992 21.1304 32.1481 22.5249C31.0972 23.9192 29.6772 24.7428 28.1438 24.7428C26.6104 24.7428 25.1905 23.9192 24.1395 22.5249C23.0884 21.1304 22.4258 19.1846 22.4258 17.0174C22.4258 14.8502 23.0884 12.9045 24.1395 11.5099C25.1905 10.1156 26.6104 9.29202 28.1438 9.29202C29.6772 9.29202 31.0972 10.1156 32.1481 11.5099C33.1992 12.9045 33.8618 14.8502 33.8618 17.0174Z" stroke="white" stroke-width="0.851618"/>
<mask id="mask0_5785_1716" style="mask-type:alpha" maskUnits="userSpaceOnUse" x="22" y="8" width="13" height="18">
<ellipse cx="28.1438" cy="17.0174" rx="6.14382" ry="8.1512" fill="white"/>
</mask>
<g mask="url(#mask0_5785_1716)">
<ellipse cx="31.6717" cy="17.0174" rx="5.17458" ry="6.86529" fill="white"/>
</g>
<path d="M47.2925 17.0174C47.2925 19.1846 46.6299 21.1304 45.5788 22.5249C44.5278 23.9192 43.1079 24.7428 41.5745 24.7428C40.0411 24.7428 38.6211 23.9192 37.5702 22.5249C36.5191 21.1304 35.8565 19.1846 35.8565 17.0174C35.8565 14.8502 36.5191 12.9045 37.5702 11.5099C38.6211 10.1156 40.0411 9.29202 41.5745 9.29202C43.1079 9.29202 44.5278 10.1156 45.5788 11.5099C46.6299 12.9045 47.2925 14.8502 47.2925 17.0174Z" stroke="white" stroke-width="0.851618"/>
<mask id="mask1_5785_1716" style="mask-type:alpha" maskUnits="userSpaceOnUse" x="35" y="8" width="13" height="18">
<ellipse cx="41.5745" cy="17.0174" rx="6.14382" ry="8.1512" fill="white"/>
</mask>
<g mask="url(#mask1_5785_1716)">
<ellipse cx="45.1026" cy="17.0174" rx="5.17458" ry="6.86529" fill="white"/>
</g>
<defs>
<radialGradient id="paint0_radial_5785_1716" cx="0" cy="0" r="1" gradientUnits="userSpaceOnUse" gradientTransform="translate(-2.24648 0.5) rotate(44.561) scale(28.5938 45.777)">
<stop stop-color="#FBFFD1"/>
<stop offset="1" stop-color="#D5009C"/>
</radialGradient>
<radialGradient id="paint1_radial_5785_1716" cx="0" cy="0" r="1" gradientUnits="userSpaceOnUse" gradientTransform="translate(38.0352 17.0775) rotate(18.0761) scale(23.4681 37.571)">
<stop stop-color="#FF41CD"/>
<stop offset="1" stop-color="#D4009C" stop-opacity="0"/>
</radialGradient>
</defs>
</svg>
